<svg xmlns="http://www.w3.org/2000/svg" data-v-fde0c5aa="" class="iconLeft" viewBox="0 0 300 300"><!----><defs data-v-fde0c5aa=""><!----></defs><rect data-v-fde0c5aa="" fill="transparent" x="0" y="0" width="300px" height="300px" class="logo-background-square"/><defs data-v-fde0c5aa=""><!----></defs><g data-v-fde0c5aa="" id="b05bd169-15f2-4001-a613-1babcea15bd3" fill="#000000" transform="matrix(2.5168473584213795,0,0,2.5168473584213795,92.00043417488332,126.2157929429685)"><path d="M1.26 13.09Q1.12 13.09 1.02 12.99Q0.92 12.89 0.92 12.75L0.92 12.75L0.92 6.15Q0.92 5.99 1.02 5.90Q1.12 5.81 1.26 5.81L1.26 5.81L2.37 5.81Q2.52 5.81 2.61 5.90Q2.70 5.99 2.70 6.15L2.70 6.15L2.70 6.62Q3.46 5.67 4.73 5.67L4.73 5.67Q6.29 5.67 6.90 6.92L6.90 6.92Q7.24 6.36 7.85 6.01Q8.47 5.67 9.18 5.67L9.18 5.67Q10.33 5.67 11.06 6.45Q11.79 7.24 11.79 8.74L11.79 8.74L11.79 12.75Q11.79 12.89 11.70 12.99Q11.61 13.09 11.45 13.09L11.45 13.09L10.29 13.09Q10.15 13.09 10.05 12.99Q9.95 12.89 9.95 12.75L9.95 12.75L9.95 8.85Q9.95 7.97 9.58 7.57Q9.21 7.18 8.61 7.18L8.61 7.18Q8.06 7.18 7.68 7.58Q7.29 7.98 7.29 8.85L7.29 8.85L7.29 12.75Q7.29 12.89 7.20 12.99Q7.11 13.09 6.96 13.09L6.96 13.09L5.78 13.09Q5.64 13.09 5.54 12.99Q5.45 12.89 5.45 12.75L5.45 12.75L5.45 8.85Q5.45 7.98 5.07 7.58Q4.69 7.18 4.10 7.18L4.10 7.18Q3.56 7.18 3.17 7.58Q2.79 7.98 2.79 8.85L2.79 8.85L2.79 12.75Q2.79 12.89 2.69 12.99Q2.60 13.09 2.45 13.09L2.45 13.09L1.26 13.09ZM15.68 13.23Q14.97 13.23 14.37 12.94Q13.78 12.66 13.43 12.17Q13.09 11.68 13.09 11.09L13.09 11.09Q13.09 10.14 13.86 9.55Q14.63 8.96 15.97 8.75L15.97 8.75L17.89 8.47L17.89 8.18Q17.89 7.57 17.58 7.27Q17.28 6.96 16.60 6.96L16.60 6.96Q16.14 6.96 15.86 7.13Q15.58 7.29 15.41 7.47Q15.23 7.64 15.18 7.70L15.18 7.70Q15.12 7.87 14.97 7.87L14.97 7.87L13.87 7.87Q13.75 7.87 13.66 7.78Q13.57 7.70 13.57 7.56L13.57 7.56Q13.58 7.21 13.91 6.77Q14.24 6.33 14.92 6.00Q15.61 5.67 16.62 5.67L16.62 5.67Q18.27 5.67 19.03 6.41Q19.78 7.15 19.78 8.36L19.78 8.36L19.78 12.75Q19.78 12.89 19.69 12.99Q19.60 13.09 19.45 13.09L19.45 13.09L18.28 13.09Q18.14 13.09 18.05 12.99Q17.95 12.89 17.95 12.75L17.95 12.75L17.95 12.21Q17.64 12.66 17.08 12.94Q16.52 13.23 15.68 13.23L15.68 13.23ZM16.16 11.89Q16.93 11.89 17.42 11.38Q17.91 10.88 17.91 9.93L17.91 9.93L17.91 9.65L16.51 9.87Q14.90 10.12 14.90 10.95L14.90 10.95Q14.90 11.40 15.27 11.64Q15.64 11.89 16.16 11.89L16.16 11.89ZM24.72 13.23Q23.18 13.23 22.27 12.38Q21.35 11.52 21.29 10.01L21.29 10.01L21.28 9.45L21.29 8.89Q21.35 7.38 22.27 6.52Q23.18 5.67 24.72 5.67L24.72 5.67Q25.83 5.67 26.59 6.06Q27.36 6.45 27.73 7.02Q28.10 7.59 28.13 8.11L28.13 8.11Q28.14 8.25 28.03 8.34Q27.93 8.44 27.79 8.44L27.79 8.44L26.54 8.44Q26.39 8.44 26.32 8.38Q26.25 8.32 26.18 8.15L26.18 8.15Q25.97 7.62 25.63 7.38Q25.28 7.14 24.75 7.14L24.75 7.14Q24.04 7.14 23.64 7.59Q23.24 8.04 23.21 8.96L23.21 8.96L23.20 9.48L23.21 9.94Q23.30 11.76 24.75 11.76L24.75 11.76Q25.30 11.76 25.63 11.53Q25.97 11.30 26.18 10.75L26.18 10.75Q26.24 10.60 26.31 10.53Q26.39 10.46 26.54 10.46L26.54 10.46L27.79 10.46Q27.93 10.46 28.03 10.56Q28.14 10.65 28.13 10.79L28.13 10.79Q28.10 11.28 27.73 11.85Q27.37 12.42 26.61 12.82Q25.86 13.23 24.72 13.23L24.72 13.23ZM29.92 13.09Q29.78 13.09 29.68 12.99Q29.58 12.89 29.58 12.75L29.58 12.75L29.58 6.16Q29.58 6.01 29.68 5.91Q29.78 5.81 29.92 5.81L29.92 5.81L31.07 5.81Q31.22 5.81 31.32 5.91Q31.42 6.01 31.42 6.16L31.42 6.16L31.42 6.73Q32.12 5.81 33.43 5.81L33.43 5.81L34.02 5.81Q34.17 5.81 34.27 5.90Q34.36 5.99 34.36 6.15L34.36 6.15L34.36 7.17Q34.36 7.31 34.27 7.41Q34.17 7.50 34.02 7.50L34.02 7.50L32.91 7.50Q32.26 7.50 31.88 7.88Q31.50 8.26 31.50 8.92L31.50 8.92L31.50 12.75Q31.50 12.89 31.40 12.99Q31.30 13.09 31.16 13.09L31.16 13.09L29.92 13.09ZM38.58 13.23Q36.93 13.23 36.04 12.39Q35.14 11.55 35.07 10.07L35.07 10.07L35.06 9.45L35.07 8.83Q35.14 7.36 36.05 6.52Q36.96 5.67 38.58 5.67L38.58 5.67Q40.19 5.67 41.10 6.52Q42.01 7.36 42.08 8.83L42.08 8.83Q42.10 9.00 42.10 9.45L42.10 9.45Q42.10 9.90 42.08 10.07L42.08 10.07Q42.01 11.55 41.12 12.39Q40.22 13.23 38.58 13.23L38.58 13.23ZM38.58 11.82Q39.33 11.82 39.73 11.35Q40.12 10.89 40.15 10.00L40.15 10.00Q40.17 9.86 40.17 9.45L40.17 9.45Q40.17 9.04 40.15 8.90L40.15 8.90Q40.12 8.01 39.72 7.54Q39.31 7.07 38.58 7.07L38.58 7.07Q37.84 7.07 37.44 7.54Q37.03 8.01 37.00 8.90L37.00 8.90L36.99 9.45L37.00 10.00Q37.03 10.89 37.44 11.35Q37.84 11.82 38.58 11.82L38.58 11.82ZM45.96 13.09Q45.75 13.09 45.64 13.00Q45.53 12.91 45.46 12.74L45.46 12.74L42.83 6.24Q42.81 6.20 42.81 6.12L42.81 6.12Q42.81 5.99 42.90 5.90Q42.99 5.81 43.11 5.81L43.11 5.81L44.27 5.81Q44.55 5.81 44.65 6.08L44.65 6.08L46.49 10.96L48.34 6.08Q48.37 5.98 48.46 5.89Q48.55 5.81 48.71 5.81L48.71 5.81L49.87 5.81Q49.99 5.81 50.08 5.90Q50.16 5.99 50.16 6.12L50.16 6.12Q50.16 6.20 50.15 6.24L50.15 6.24L47.53 12.74Q47.38 13.09 47.03 13.09L47.03 13.09L45.96 13.09ZM54.14 13.23Q52.85 13.23 52.11 12.39Q51.37 11.55 51.37 10.08L51.37 10.08L51.37 6.15Q51.37 5.99 51.46 5.90Q51.56 5.81 51.70 5.81L51.70 5.81L52.96 5.81Q53.10 5.81 53.20 5.91Q53.30 6.01 53.30 6.15L53.30 6.15L53.30 10.00Q53.30 11.72 54.80 11.72L54.80 11.72Q55.52 11.72 55.95 11.26Q56.38 10.79 56.38 10.00L56.38 10.00L56.38 6.15Q56.38 5.99 56.48 5.90Q56.57 5.81 56.71 5.81L56.71 5.81L57.96 5.81Q58.11 5.81 58.20 5.90Q58.30 5.99 58.30 6.15L58.30 6.15L58.30 12.75Q58.30 12.89 58.20 12.99Q58.11 13.09 57.96 13.09L57.96 13.09L56.80 13.09Q56.66 13.09 56.56 12.99Q56.46 12.89 56.46 12.75L56.46 12.75L56.46 12.18Q55.69 13.23 54.14 13.23L54.14 13.23ZM63.29 13.23Q61.73 13.23 60.81 12.33Q59.89 11.44 59.84 9.79L59.84 9.79L59.82 9.44Q59.82 7.69 60.74 6.68Q61.66 5.67 63.28 5.67L63.28 5.67Q64.95 5.67 65.85 6.68Q66.75 7.69 66.75 9.37L66.75 9.37L66.75 9.66Q66.75 9.80 66.65 9.90Q66.56 10.00 66.40 10.00L66.40 10.00L61.75 10.00L61.75 10.11Q61.78 10.89 62.18 11.40Q62.58 11.91 63.28 11.91L63.28 11.91Q64.08 11.91 64.58 11.27L64.58 11.27Q64.71 11.12 64.78 11.08Q64.85 11.05 65.02 11.05L65.02 11.05L66.25 11.05Q66.37 11.05 66.47 11.12Q66.56 11.19 66.56 11.31L66.56 11.31Q66.56 11.65 66.16 12.10Q65.76 12.56 65.02 12.89Q64.27 13.23 63.29 13.23L63.29 13.23ZM61.75 8.81L64.82 8.81L64.82 8.78Q64.82 7.95 64.41 7.46Q63.99 6.96 63.28 6.96L63.28 6.96Q62.57 6.96 62.16 7.46Q61.75 7.95 61.75 8.78L61.75 8.78L61.75 8.81Z"/></g><defs data-v-fde0c5aa=""><linearGradient data-v-fde0c5aa="" gradientTransform="rotate(25)" id="1a742584-86da-41c7-9b80-889cbfc98a0e" x1="0%" y1="0%" x2="100%" y2="0%"><stop data-v-fde0c5aa="" offset="0%" stop-color="#E90DCA" stop-opacity="1"/><stop data-v-fde0c5aa="" offset="100%" stop-color="#1536F1" stop-opacity="1"/></linearGradient></defs><g data-v-fde0c5aa="" id="f1c16573-d8e2-4604-b8cf-85fdeca9838e" stroke="none" fill="url(#1a742584-86da-41c7-9b80-889cbfc98a0e)" transform="matrix(0.5164491723329427,0,0,0.5164491723329427,34.66301444224071,123.57174633083777)"><path d="M31.329 45.252h35.178l-3.241 3.241a.999.999 0 101.414 1.414l4.948-4.948a.999.999 0 000-1.414l-4.948-4.948a.999.999 0 10-1.414 1.414l3.241 3.241H31.329a1 1 0 000 2zM35.57 63.406a.997.997 0 001.414 0 .999.999 0 000-1.414l-3.241-3.241h35.178a1 1 0 000-2H33.743l3.241-3.242a.999.999 0 10-1.414-1.414l-4.948 4.949a.999.999 0 000 1.414l4.948 4.948z"/><path d="M89.333 70.494H85.18V28.817a5.282 5.282 0 00-5.276-5.276H20.762a5.282 5.282 0 00-5.276 5.276v41.677h-4.152a1 1 0 00-1 1v2.199a5.117 5.117 0 005.112 5.112h69.775a5.118 5.118 0 005.113-5.112v-2.199a1 1 0 00-1.001-1zM17.486 28.817a3.28 3.28 0 013.276-3.276h59.142a3.28 3.28 0 013.276 3.276v41.677h-3V30.507a1 1 0 00-1-1H21.487a1 1 0 00-1 1v39.986h-3.001V28.817zM78.18 70.494H22.487V31.507H78.18v38.987zm10.153 3.198a3.116 3.116 0 01-3.113 3.112H15.446a3.115 3.115 0 01-3.112-3.112v-1.199h76v1.199z"/></g><!----></svg>